# xmcd
#
# Track frame offsets: 
#        150
#        25845
#        48675
#        73555
#        99787
#        116067
#        138997
#        160477
#        191600
#        216420
#        245312
#        274160
#
# Disc length: 4002 seconds
#
# Revision: 4
# Processed by: cddbd v1.5.2PL0 Copyright (c) Steve Scherf et al.
# Submitted via: ExactAudioCopyFreeDBPlugin 1.0
#
DISCID=af0fa00c
DTITLE=Dr John - Duke Elegant
DYEAR=2000
DGENRE=Jazz
TTITLE0=On the Wrong Side of the Railroad Tracks
TTITLE1=I'm Gonna Go Fishin'
TTITLE2=It Don't Mean a Thing (If it Ain't Got That Swing)
TTITLE3=Perdido
TTITLE4=Don't Get Around Much Anymore
TTITLE5=Solitude
TTITLE6=Satin Doll
TTITLE7=Mood Indigo
TTITLE8=Do Nothin 'Til You Hear from Me
TTITLE9=Things Ain't What They Used to Be
TTITLE10=Caravan
TTITLE11=Flaming Sword
EXTD=
EXTT0=
EXTT1=
EXTT2=
EXTT3=
EXTT4=
EXTT5=
EXTT6=
EXTT7=
EXTT8=
EXTT9=
EXTT10=
EXTT11=
PLAYORDER=
